<svg width="801" height="227" viewBox="0 0 801 227" fill="none" xmlns="http://www.w3.org/2000/svg">
<mask id="mask0_1079_32729" style="mask-type:luminance" maskUnits="userSpaceOnUse" x="0" y="0" width="211" height="227">
<path d="M210.222 0H0V226.997H210.222V0Z" fill="white"/>
</mask>
<g mask="url(#mask0_1079_32729)">
<path d="M43.3186 87.9107L93.0075 109.782L74.7458 155.224L104.899 226.997L135.052 155.224L116.79 109.782L166.479 87.9107L210.222 0L130.168 33.7628L112.968 68.1627L107.447 52.0245H102.351L96.8297 68.1627L79.6297 33.7628L0 0L43.3186 87.9107Z" fill="white"/>
</g>
<mask id="mask1_1079_32729" style="mask-type:luminance" maskUnits="userSpaceOnUse" x="0" y="0" width="44" height="91">
<path d="M43.9556 0H0V90.0342H43.9556V0Z" fill="white"/>
</mask>
<g mask="url(#mask1_1079_32729)">
<path d="M0 0L37.7976 33.7628L43.5309 87.9107L0 0Z" fill="#0C365A"/>
</g>
<path d="M93.2202 109.778L89.8227 97.8865L43.5312 87.9062L93.2202 109.778Z" fill="#1868AE"/>
<path d="M74.9585 58.6133L89.8227 97.8971L43.5312 87.9168L74.9585 58.6133Z" fill="#73B3EC"/>
<path d="M74.9609 58.6133L89.8252 97.8971L117.218 89.828L74.9609 58.6133Z" fill="#1868AE"/>
<path d="M93.2193 109.785L89.6094 97.8933L117.002 89.8242L93.2193 109.785Z" fill="#0C365A"/>
<path d="M74.9574 58.6061L37.7969 33.7617L43.5302 87.9096L74.9574 58.6061Z" fill="#A5CFF3"/>
<path d="M117 109.778V89.8174L166.689 87.9062L117 109.778Z" fill="#CDE4F8"/>
<path d="M117 89.8231L138.872 65.8281L166.901 87.912L117 89.8231Z" fill="#FBF2DF"/>
<mask id="mask2_1079_32729" style="mask-type:luminance" maskUnits="userSpaceOnUse" x="89" y="106" width="49" height="69">
<path d="M137.39 106.812H89.1875V174.763H137.39V106.812Z" fill="white"/>
</mask>
<g mask="url(#mask2_1079_32729)">
<mask id="mask3_1079_32729" style="mask-type:luminance" maskUnits="userSpaceOnUse" x="91" y="109" width="45" height="65">
<path d="M91.7422 173.697L117.011 109.781L135.485 155.223L91.7422 173.697Z" fill="white"/>
</mask>
<g mask="url(#mask3_1079_32729)">
<path d="M91.7422 109.781V173.697H135.273V109.781H91.7422Z" fill="url(#paint0_linear_1079_32729)"/>
</g>
</g>
<path d="M91.7377 173.697L117.007 109.781L74.75 155.223L91.7377 173.697Z" fill="#CDE4F8"/>
<mask id="mask4_1079_32729" style="mask-type:luminance" maskUnits="userSpaceOnUse" x="89" y="155" width="49" height="72">
<path d="M137.39 155.016H89.1875V227H137.39V155.016Z" fill="white"/>
</mask>
<g mask="url(#mask4_1079_32729)">
<path d="M91.7422 173.701L105.12 226.999L135.485 155.227L91.7422 173.701Z" fill="#1868AE"/>
</g>
<mask id="mask5_1079_32729" style="mask-type:luminance" maskUnits="userSpaceOnUse" x="72" y="155" width="35" height="72">
<path d="M106.171 155.016H72.1953V227H106.171V155.016Z" fill="white"/>
</mask>
<g mask="url(#mask5_1079_32729)">
<path d="M91.7284 173.701L105.106 226.999L74.9531 155.227L91.7284 173.701Z" fill="#0C365A"/>
</g>
<path d="M74.9609 155.226L117.218 89.8242V109.785L74.9609 155.226Z" fill="#1868AE"/>
<path d="M74.9609 155.226L117.218 89.8242L93.435 109.785L74.9609 155.226Z" fill="#A5CFF3"/>
<mask id="mask6_1079_32729" style="mask-type:luminance" maskUnits="userSpaceOnUse" x="0" y="0" width="81" height="37">
<path d="M80.6914 0H0V36.0986H80.6914V0Z" fill="white"/>
</mask>
<g mask="url(#mask6_1079_32729)">
<path d="M0 0L37.7976 33.7628H80.0544L0 0Z" fill="#E9F3FC"/>
</g>
<path d="M97.0391 68.1592L107.444 63.6999L102.348 51.8086L97.0391 68.1592Z" fill="#0C365A"/>
<path d="M37.7969 33.7617L74.9574 58.6061L80.0537 33.7617H37.7969Z" fill="#CDE4F8"/>
<path d="M97.0463 68.1616L74.75 58.6061L79.8463 33.7617L97.0463 68.1616Z" fill="#A5CFF3"/>
<path d="M97.0463 68.1688L117.007 89.828L74.75 58.6133L97.0463 68.1688Z" fill="#F5F6F7"/>
<path d="M107.663 63.7031L97.2578 68.1624L117.218 89.8215L107.663 63.7031Z" fill="#1868AE"/>
<path d="M107.664 63.7031L113.185 68.1624L117.22 89.8215L107.664 63.7031Z" fill="#F5F6F7"/>
<path d="M138.874 65.8281L113.18 68.1639L117.214 89.8231L138.874 65.8281Z" fill="#CDE4F8"/>
<path d="M138.874 65.8258L113.18 68.1616L130.38 33.7617L138.874 65.8258Z" fill="#73B3EC"/>
<path d="M107.664 63.6999L113.185 68.1592L107.664 51.8086V63.6999Z" fill="#A5CFF3"/>
<path d="M102.352 52.0234L107.66 63.9148V52.0234H102.352Z" fill="#E9F3FC"/>
<mask id="mask7_1079_32729" style="mask-type:luminance" maskUnits="userSpaceOnUse" x="159" y="0" width="52" height="91">
<path d="M210.224 0H159.898V90.0342H210.224V0Z" fill="white"/>
</mask>
<g mask="url(#mask7_1079_32729)">
<path d="M210.222 0L161.383 37.1603L166.904 87.9107L210.222 0Z" fill="#092842"/>
</g>
<path d="M138.867 65.8267L161.376 37.1602L166.897 87.9105L138.867 65.8267Z" fill="#A5CFF3"/>
<mask id="mask8_1079_32729" style="mask-type:luminance" maskUnits="userSpaceOnUse" x="128" y="0" width="83" height="40">
<path d="M210.227 0H128.898V39.0714H210.227V0Z" fill="white"/>
</mask>
<g mask="url(#mask8_1079_32729)">
<path d="M210.226 0L130.172 33.7628L161.174 37.1603L210.226 0Z" fill="#E9F3FC"/>
</g>
<path d="M138.87 65.8258L130.164 33.7617L161.167 37.1592L138.87 65.8258Z" fill="#CDE4F8"/>
<path d="M293.851 129.621V140.451H242.039V71.2266H292.365V82.0561H254.78V100.105H288.118V110.723H254.78V129.834L293.851 129.621Z" fill="white"/>
<path d="M348.161 130.476V140.244H302.719V132.387L331.598 97.3499H303.143V87.582H347.311V95.4388L318.432 130.476H348.161Z" fill="white"/>
<path d="M409.019 87.582L384.175 144.703C381.839 150.436 379.079 154.471 375.681 156.806C372.496 159.142 368.461 160.416 363.79 160.416C361.242 160.416 358.481 159.992 355.933 159.142C353.385 158.293 351.261 157.019 349.562 155.532L354.446 146.402C355.721 147.463 356.995 148.313 358.693 148.95C360.392 149.587 361.879 150.011 363.577 150.011C365.701 150.011 367.612 149.374 368.886 148.313C370.372 147.251 371.646 145.34 372.708 142.579L373.558 140.456L350.837 87.582H363.577L380.14 126.653L396.916 87.582H409.019Z" fill="white"/>
<path d="M449.72 141.303C442.713 141.303 436.555 139.817 430.821 136.844C425.088 133.871 420.841 129.625 417.656 124.104C414.471 118.583 412.984 112.637 412.984 105.842C412.984 99.0469 414.683 92.8889 417.868 87.5802C421.054 82.2716 425.513 78.0247 431.246 74.8396C436.979 71.8667 443.137 70.168 450.145 70.168C455.878 70.168 460.975 71.2297 465.646 73.1408C470.318 75.0519 474.352 78.0247 477.538 81.6346L469.256 89.4913C464.16 84.1827 458.002 81.4222 450.782 81.4222C446.11 81.4222 441.863 82.484 438.041 84.6074C434.219 86.7309 431.458 89.4913 429.335 93.3135C427.212 96.9234 426.15 101.17 426.15 105.842C426.15 110.513 427.212 114.76 429.335 118.37C431.458 121.98 434.431 124.953 438.041 127.076C441.863 129.2 446.11 130.262 450.782 130.262C458.002 130.262 464.16 127.501 469.256 121.98L477.538 129.837C474.352 133.659 470.318 136.42 465.646 138.331C460.55 140.454 455.454 141.303 449.72 141.303Z" fill="white"/>
<path d="M512.061 141.088C506.752 141.088 501.868 140.026 497.621 137.69C493.374 135.355 489.977 132.169 487.641 128.135C485.305 124.1 484.031 119.429 484.031 114.12C484.031 108.812 485.305 104.352 487.641 100.105C489.977 96.0708 493.374 92.8856 497.621 90.5499C501.868 88.2141 506.752 87.1523 512.061 87.1523C517.37 87.1523 522.254 88.2141 526.5 90.5499C530.747 92.8856 534.145 96.0708 536.481 100.105C538.816 104.14 540.091 108.812 540.091 114.12C540.091 119.216 538.816 123.888 536.481 128.135C534.145 132.169 530.747 135.355 526.5 137.69C522.254 140.026 517.582 141.088 512.061 141.088ZM512.061 130.471C516.52 130.471 520.342 128.984 523.315 126.011C526.288 123.039 527.775 119.004 527.775 114.12C527.775 109.236 526.288 105.202 523.315 102.229C520.342 99.256 516.52 97.7696 512.061 97.7696C507.602 97.7696 503.779 99.256 500.807 102.229C497.834 105.202 496.347 109.236 496.347 114.12C496.347 119.004 497.834 123.039 500.807 126.011C503.779 128.984 507.602 130.471 512.061 130.471Z" fill="white"/>
<path d="M582.145 87.1523C588.728 87.1523 594.037 89.0634 598.071 93.098C602.106 96.9202 604.229 102.866 604.229 110.298V140.451H591.701V111.784C591.701 107.113 590.639 103.715 588.516 101.379C586.392 99.0437 583.207 97.9819 579.172 97.9819C574.713 97.9819 571.103 99.256 568.343 102.016C565.795 104.777 564.308 108.599 564.308 113.695V140.451H551.992V87.577H563.671V94.3721C565.795 91.8239 568.343 90.1252 571.316 88.8511C574.713 87.7894 578.111 87.1523 582.145 87.1523Z" fill="white"/>
<path d="M669.197 87.582L646.476 140.244H633.735L611.227 87.582H623.967L640.318 126.653L657.306 87.582H669.197Z" fill="white"/>
<path d="M726.458 114.335C726.458 115.184 726.458 116.458 726.246 117.945H684.838C685.475 121.767 687.386 124.952 690.571 127.288C693.544 129.624 697.367 130.686 702.038 130.686C707.771 130.686 712.655 128.774 716.478 124.952L723.06 132.597C720.725 135.357 717.752 137.481 714.142 138.967C710.532 140.453 706.497 141.09 701.826 141.09C696.092 141.09 690.996 140.029 686.537 137.693C682.078 135.357 678.68 132.172 676.344 128.137C674.008 124.103 672.734 119.431 672.734 114.123C672.734 109.026 673.796 104.355 676.132 100.32C678.468 96.2857 681.653 92.8882 685.9 90.7647C690.147 88.6413 694.818 87.3672 699.915 87.3672C705.011 87.3672 709.683 88.4289 713.717 90.7647C717.752 93.1005 720.937 96.2857 723.273 100.32C725.396 104.142 726.458 108.814 726.458 114.335ZM699.702 96.9227C695.668 96.9227 692.483 98.1968 689.722 100.533C686.962 102.868 685.263 106.054 684.838 109.876H714.779C714.354 106.054 712.655 102.868 709.895 100.533C707.134 98.1968 703.737 96.9227 699.702 96.9227Z" fill="white"/>
<path d="M787.823 87.582L763.191 144.49C760.855 150.224 758.094 154.258 754.697 156.594C751.511 158.93 747.477 160.204 742.805 160.204C740.257 160.204 737.497 159.779 734.949 158.93C732.4 158.081 730.277 156.806 728.578 155.32L733.462 146.189C734.736 147.251 736.01 148.1 737.709 148.737C739.408 149.374 740.894 149.799 742.593 149.799C744.716 149.799 746.628 149.162 747.902 148.1C749.388 147.039 750.662 145.127 751.724 142.367L752.573 140.244L729.64 87.582H742.381L758.944 126.653L775.719 87.582H787.823Z" fill="white"/>
<path d="M800.756 200.454C722.401 187.501 621.324 179.644 511.116 179.644C400.909 179.644 299.832 187.501 221.477 200.454C289.003 179.857 393.689 166.691 511.116 166.691C628.544 166.691 733.018 179.857 800.756 200.454Z" fill="#29508D"/>
<defs>
<linearGradient id="paint0_linear_1079_32729" x1="143.7" y1="156.23" x2="83.3261" y2="127.718" gradientUnits="userSpaceOnUse">
<stop stop-color="#EBE6E2"/>
<stop offset="0.25" stop-color="#EBE6E2"/>
<stop offset="0.4094" stop-color="#EBE5E1"/>
<stop offset="0.5" stop-color="#EAE5E0"/>
<stop offset="0.5906" stop-color="#EAE5E0"/>
<stop offset="0.75" stop-color="#EAE4E0"/>
<stop offset="1" stop-color="#EAE4DF"/>
</linearGradient>
</defs>
</svg>
